<svg xmlns="http://www.w3.org/2000/svg" viewBox="0 0 688.09 110.95"><defs><style>.cls-1{fill:#25292c;}.cls-2{fill:#0077fe;}.cls-3{fill:#fff;}.cls-4{fill:#01e7ff;}</style></defs><g id="Calque_2" data-name="Calque 2"><g id="Calque_2-2" data-name="Calque 2"><path class="cls-1" d="M157.13,57.19a84.06,84.06,0,0,0-11-3.72,74.46,74.46,0,0,1-8-2.54,13.45,13.45,0,0,1-4.84-3.17,7.16,7.16,0,0,1-1.91-5.13,8.52,8.52,0,0,1,3-7,12.12,12.12,0,0,1,7.82-2.44,13,13,0,0,1,8.5,2.64,8.9,8.9,0,0,1,3.51,6.35h12.31a18.18,18.18,0,0,0-7-13.53q-6.3-4.93-16.17-4.93A29.88,29.88,0,0,0,131.19,26,18.73,18.73,0,0,0,123,32.76,18.09,18.09,0,0,0,120.05,43q0,6.34,2.93,10.16a17.94,17.94,0,0,0,7.09,5.62,77.26,77.26,0,0,0,10.79,3.56,77.52,77.52,0,0,1,8.26,2.54,13.49,13.49,0,0,1,5,3.32,7.88,7.88,0,0,1,2,5.57A9,9,0,0,1,152.88,81q-3.23,2.79-9,2.79-5.56,0-8.65-2.84a10.72,10.72,0,0,1-3.46-7.23H119.86A17.27,17.27,0,0,0,123,84a20.19,20.19,0,0,0,8.6,6.79,30.35,30.35,0,0,0,12.31,2.4,26.68,26.68,0,0,0,12.55-2.79A20.13,20.13,0,0,0,164.55,83a18.51,18.51,0,0,0,2.79-9.77q0-6.45-3-10.31A18.29,18.29,0,0,0,157.13,57.19Z"/><polygon class="cls-1" points="205.34 38.62 185.8 62.17 185.8 20.16 174.66 20.16 174.66 92.45 185.8 92.45 185.8 69.3 205.73 92.45 220.77 92.45 195.96 65.59 220.77 38.62 205.34 38.62"/><path class="cls-1" d="M228.59,17.23a7,7,0,0,0-7.14,7.13,7,7,0,0,0,7.14,7.13,6.78,6.78,0,0,0,5-2,6.89,6.89,0,0,0,2.05-5.08,6.89,6.89,0,0,0-2.05-5.08A6.78,6.78,0,0,0,228.59,17.23Z"/><rect class="cls-1" x="222.92" y="38.62" width="11.14" height="53.83"/><rect class="cls-1" x="242.85" y="20.16" width="11.14" height="72.29"/><rect class="cls-1" x="262.78" y="20.16" width="11.14" height="72.29"/><path class="cls-1" d="M313.53,64.37a71.29,71.29,0,0,0-9.63-3.18q-4.39-1.27-6.64-2.1a11,11,0,0,1-3.81-2.3,4.75,4.75,0,0,1-1.56-3.61,5.16,5.16,0,0,1,2.34-4.4A11.64,11.64,0,0,1,301,47.12a11,11,0,0,1,7.13,2.15A8,8,0,0,1,311,55h11.13a16.7,16.7,0,0,0-6-12.66q-5.62-4.64-14.81-4.64a27.15,27.15,0,0,0-10.89,2.06,16.94,16.94,0,0,0-7.28,5.61,13.29,13.29,0,0,0-2.54,7.87,12.54,12.54,0,0,0,2.79,8.5A17.19,17.19,0,0,0,290,66.56a86.91,86.91,0,0,0,9.87,3.23A53.43,53.43,0,0,1,309,73a4.77,4.77,0,0,1,2.88,4.49,5.45,5.45,0,0,1-2.58,4.64Q306.74,84,302.05,84a11.9,11.9,0,0,1-7.48-2.29,7.9,7.9,0,0,1-3.27-5.72H279.77a15.61,15.61,0,0,0,3.13,8.84,19.87,19.87,0,0,0,8,6.25,27.15,27.15,0,0,0,11.38,2.3,26.77,26.77,0,0,0,10.9-2,16.92,16.92,0,0,0,7.18-5.67,13.93,13.93,0,0,0,2.54-8.2A12.56,12.56,0,0,0,320,69.1,17.9,17.9,0,0,0,313.53,64.37Z"/><path class="cls-1" d="M407.36,72l8.79-15h-12L397.2,68.42l-18-17.88a41.48,41.48,0,0,1-5.32-6.69,10.26,10.26,0,0,1-1.51-5.23,6.15,6.15,0,0,1,2-4.64,7.26,7.26,0,0,1,5.22-1.9,6.59,6.59,0,0,1,5.08,2,7.61,7.61,0,0,1,1.76,5.62h11.14A15.23,15.23,0,0,0,396,31.2a14.46,14.46,0,0,0-6.06-6A20.38,20.38,0,0,0,380.1,23a23,23,0,0,0-10,2.05,15.77,15.77,0,0,0-6.6,5.57,14.35,14.35,0,0,0-2.29,8,17.94,17.94,0,0,0,1.17,6.6,24.31,24.31,0,0,0,4,6.4q-7.92,3.23-11.92,8.74a20.83,20.83,0,0,0-4,12.55,19.93,19.93,0,0,0,3,11,19.47,19.47,0,0,0,8.6,7.28,30.59,30.59,0,0,0,12.8,2.54,33.41,33.41,0,0,0,12.89-2.39,33,33,0,0,0,10.65-7.28l8.4,8.4h14.56L404.92,76ZM374.93,84.25a13.71,13.71,0,0,1-9.58-3.38,10.83,10.83,0,0,1-3.71-8.35q0-9.27,11.53-13.87l18,18.07Q384.11,84.25,374.93,84.25Z"/><polygon class="cls-1" points="432.65 33.64 450.81 33.64 450.81 92.45 461.95 92.45 461.95 33.64 480.03 33.64 480.03 24.56 432.65 24.56 432.65 33.64"/><path class="cls-1" d="M493.4,46.44V38.62H482.26V92.45H493.4V64.12q0-8.21,3.37-11.53t9.92-3.32h2.83V37.74A19.21,19.21,0,0,0,499.9,40,17.43,17.43,0,0,0,493.4,46.44Z"/><path class="cls-1" d="M555.63,46.44a22.66,22.66,0,0,0-7.57-6.21A23.53,23.53,0,0,0,537,37.74a24.55,24.55,0,0,0-22,13.19,29.77,29.77,0,0,0-3.37,14.36,30.6,30.6,0,0,0,3.37,14.51,25.23,25.23,0,0,0,9.13,10,25,25,0,0,0,23.84,1,22.07,22.07,0,0,0,7.72-6.35v8h11.23V38.62H555.63Zm-2.3,28.77a16,16,0,0,1-6,6.3,15.72,15.72,0,0,1-8,2.15,15.49,15.49,0,0,1-8-2.2,16.15,16.15,0,0,1-6.06-6.4A20,20,0,0,1,523,65.29a19.21,19.21,0,0,1,2.29-9.62,15.81,15.81,0,0,1,14-8.25,15.71,15.71,0,0,1,8,2.14,16.12,16.12,0,0,1,6,6.26,19.48,19.48,0,0,1,2.3,9.67A19.79,19.79,0,0,1,553.33,75.21Z"/><path class="cls-1" d="M617.36,46.15A21.27,21.27,0,0,0,609.21,40a25.28,25.28,0,0,0-10.41-2.3,24.56,24.56,0,0,0-22.12,13.19,29.77,29.77,0,0,0-3.37,14.36,30.6,30.6,0,0,0,3.37,14.51,25,25,0,0,0,9.18,10,24.06,24.06,0,0,0,12.84,3.57,23.52,23.52,0,0,0,11.09-2.54,20.69,20.69,0,0,0,7.57-6.45v8.11H628.6V20.16H617.36Zm-2.29,29.06a16,16,0,0,1-6,6.3,15.75,15.75,0,0,1-8,2.15,15.47,15.47,0,0,1-8-2.2,16.15,16.15,0,0,1-6.06-6.4,20,20,0,0,1-2.3-9.77,19.21,19.21,0,0,1,2.3-9.62,15.81,15.81,0,0,1,6-6.15,16,16,0,0,1,8-2.1,15.74,15.74,0,0,1,8,2.14,16.19,16.19,0,0,1,6,6.26,19.48,19.48,0,0,1,2.29,9.67A19.78,19.78,0,0,1,615.07,75.21Z"/><path class="cls-1" d="M688.09,64.22a28.18,28.18,0,0,0-3.32-13.83,23.5,23.5,0,0,0-9.28-9.32,27.38,27.38,0,0,0-13.58-3.33,28.19,28.19,0,0,0-14,3.42,23.74,23.74,0,0,0-9.48,9.72A30.47,30.47,0,0,0,635,65.49a29.82,29.82,0,0,0,3.47,14.6,24.65,24.65,0,0,0,9.57,9.77,27.42,27.42,0,0,0,13.83,3.47q9.47,0,15.87-4.74a24.17,24.17,0,0,0,8.84-12.16h-12Q670.89,84,661.91,84A15.08,15.08,0,0,1,651.36,80a14.87,14.87,0,0,1-4.79-10.35H687.7A34.88,34.88,0,0,0,688.09,64.22ZM646.67,60.7a15.3,15.3,0,0,1,4.88-9.91,14.28,14.28,0,0,1,9.87-3.67,15.76,15.76,0,0,1,10.65,3.71,12.69,12.69,0,0,1,4.39,9.87Z"/><path class="cls-2" d="M94.36,27.13a7.08,7.08,0,0,1-2.08,5L80.64,43.78l-8.41,8.4a7.09,7.09,0,0,1-10-10l.83-.83,7.12-7.12h-23A21.26,21.26,0,0,0,25.92,55.47c0,.44,0,.88,0,1.32a7,7,0,0,0-3.84,2l-8.4,8.4A35.45,35.45,0,0,1,47.18,20h23L62.21,12.1a7.09,7.09,0,1,1,10-10l20,20A7.08,7.08,0,0,1,94.36,27.13Z"/><path class="cls-3" d="M68.39,54.16c0,.43,0,.87,0,1.31A21.26,21.26,0,0,1,47.18,76.73h-23l7.94-7.94a7.08,7.08,0,0,0-6.18-12c0-.44,0-.88,0-1.32A21.26,21.26,0,0,1,47.18,34.21h23L63,41.33l-.83.83a7.09,7.09,0,0,0,6.18,12Z"/><path class="cls-4" d="M82.61,55.47A35.43,35.43,0,0,1,47.18,90.9h-23l8,7.95a7.09,7.09,0,0,1-10,10l-20-20a7.07,7.07,0,0,1,0-10L13.73,67.17l8.4-8.4a7,7,0,0,1,3.84-2,7.08,7.08,0,0,1,6.18,12l-7.94,7.94h23A21.26,21.26,0,0,0,68.44,55.47c0-.44,0-.88,0-1.31a7,7,0,0,0,3.84-2l8.41-8.4A35.33,35.33,0,0,1,82.61,55.47Z"/></g></g></svg>